<?xml version="1.0" encoding="UTF-8"?><svg id="a" xmlns="http://www.w3.org/2000/svg" viewBox="0 0 129.23 148.25"><defs><style>.b{fill:#f78e2d;}</style></defs><polygon class="b" points="129.23 148.25 0 148.25 0 142.63 2.74 140.33 5.62 132.55 7.92 123.47 13.11 110.65 16.57 102 20.03 94.66 24.49 86.01 29.1 78.95 33.28 72.47 37.32 66.56 41.35 61.66 44.09 58.35 47.4 55.04 51 51.29 52.15 49.99 52.15 48.7 49.27 47.11 45.53 45.24 40.63 44.09 34.87 44.09 30.83 45.67 25.93 47.4 25.21 45.82 27.66 41.06 30.4 37.6 34.72 35.15 37.6 34.15 44.81 34.15 48.55 36.02 51 37.6 50.86 35.59 47.98 32.13 44.37 29.25 39.91 26.51 34.15 23.48 30.54 22.62 23.2 22.62 18.59 22.04 20.17 19.16 24.64 15.56 29.68 12.97 32.56 12.25 37.03 11.38 41.78 11.38 47.54 12.25 50.71 13.54 53.45 15.42 56.77 17.87 59.79 20.89 59.93 18.73 58.21 15.42 55.47 11.38 51.87 8.64 48.26 6.2 45.38 4.18 42.93 2.31 45.53 .86 48.7 0 57.34 0 60.94 1.3 65.41 2.74 68.72 5.19 71.75 7.78 74.05 10.81 77.22 17.43 78.09 22.76 78.38 26.51 81.83 26.37 85.87 25.79 93.5 26.08 97.11 27.52 101 29.82 103.3 31.84 106.76 35.59 109.35 39.91 111.37 45.67 111.66 50.14 111.66 54.75 109.21 54.32 103.88 48.12 95.95 43.65 88.89 42.21 91.49 45.53 95.38 48.26 97.54 50.43 99.84 53.88 100.85 56.19 102 59.36 103.16 63.25 103.44 67.43 103.44 72.76 101.57 77.66 98.11 82.99 96.24 83.13 95.81 76.79 93.94 71.6 91.49 68.15 89.04 65.12 85.29 61.23 82.27 59.21 78.66 56.77 76.21 55.32 74.34 55.18 77.66 59.79 79.67 64.4 80.1 68.87 79.38 74.13 77.8 76.65 75.21 79.82 71.75 82.55 69.3 82.55 71.03 78.38 71.17 69.3 69.73 66.13 67.14 62.24 65.41 59.5 63.68 57.63 61.95 57.2 58.35 61.38 53.16 68.43 49.42 74.13 46.1 79.67 43.22 87.08 40.48 93.36 38.47 99.7 36.74 105.75 35.87 111.95 35.3 117.42 34.72 122.89 38.47 122.89 43.37 121.45 50.43 120.88 55.76 120.3 70.74 120.01 76.94 119.87 76.65 115.26 76.36 112.09 75.06 107.48 73.91 105.89 71.46 106.18 69.88 108.2 68.72 109.64 68.15 111.95 67.14 114.25 65.55 112.67 64.62 108.2 66.71 105.61 68.29 103.73 68.15 102.44 64.62 103.3 61.09 105.75 57.63 109.21 56.04 111.08 55.61 107.19 56.19 102.72 57.92 100.56 60.94 98.4 63.97 97.54 64.62 96.24 60.51 96.24 57.63 96.39 55.32 97.97 55.61 94.8 58.06 92.21 61.23 90.05 65.27 89.33 68 89.47 70.31 90.77 71.89 90.77 74.05 88.75 76.07 86.3 79.24 84.43 82.7 84.14 86.3 84.57 89.18 85.87 87.88 87.08 84.43 87.74 80.54 90.05 81.69 91.77 86.01 90.62 89.61 91.2 91.92 92.06 94.08 93.65 96.1 96.67 93.22 96.82 88.61 96.39 83.85 97.54 81.4 98.98 83.42 99.84 86.59 100.13 89.47 102.72 90.77 105.61 90.48 107.19 87.6 105.03 84.86 103.73 79.96 103.16 79.1 104.6 80.25 108.63 82.55 114.54 83.71 118.28 83.85 121.45 91.05 122.46 97.83 124.62 103.3 126.21 109.21 128.95 113.96 131.11 117.13 133.41 119.87 135.14 123.04 137.01 126.06 140.62 128.66 143.35 129.23 148.25"/></svg>