<?xml version="1.0" encoding="UTF-8"?>
<svg id="Layer_1" data-name="Layer 1" xmlns="http://www.w3.org/2000/svg" viewBox="0 0 127.27 144.46">
  <defs>
    <style>
      .cls-1 {
        fill: #f68c2b;
      }
    </style>
  </defs>
  <path class="cls-1" d="M127.27,144.46H0l.17-4.79c3.12-3.22,7.27-12.23,8.79-22.23,14.05-39.9,30.78-56.51,42.5-69.67-6.01-5.78-16.61-5.97-27.36-2.14,5.74-11.13,14.65-16.37,26.4-9.12-4.99-10.76-16.78-15.63-33.08-15.09,8.72-13.22,30.62-14.28,41.03-1.69-.39-5.7-6.96-12.4-18.23-18.51,20.81-4.63,34.6,3.88,36.94,24.23,21.19-3.76,35.13,11.47,31.95,29.42-5.56-7.37-13.09-12.92-21.84-13.81,14.97,10.11,18.24,27.43,7.97,41.16-4.02-17.95-11.15-25.37-22.36-28.52,9.66,9.98,5.31,24.56-4.73,26.96,3.13-10.74,1.4-19.49-7.27-25.39-14.78,17.35-24.7,38.12-27.18,64.13,8.23-2.02,21.73-3.1,41.8-2.99-.21-6.99-1.15-11.78-3-13.8-3.15,1.22-5.43,4.61-6.63,9.09-2.73-1.65-3.24-6.95,1.07-11.22l-.14-1.28c-4.54,1.58-8.79,4.92-12.15,9.23-1.36-7.33,1.43-12.48,8.02-14.07l.93-.74c-2.42-.88-5.3-.97-9.49,1.17-.9-6.95,12.82-9.92,15.56-5.94.88-1.02,1.23-1.16,2.15-1.96.48-.42,1.97-2.74,2.47-3.09,4.41-3.17,9.03-2.08,14.44-.11-4.19,1.51-9.91,3.31-10.18,4.9l1.67.08c7.27-1.09,12.56.9,14.72,6.19-6.4-1.57-11.69-1.24-15.28,1.7,7.05.52,9.35,4.41,9.4,7.96-2.89-2.72-6.73-4.33-11.41-3.19,2.11,5.68,3.69,11.24,4.71,16.65,29.77,7.19,43.15,16.19,44.94,26.47Z"/>
</svg>