<?xml version="1.0" encoding="UTF-8"?>
<svg id="Layer_5" data-name="Layer 5" xmlns="http://www.w3.org/2000/svg" viewBox="0 0 1362.41 179.5">
  <defs>
    <style>
      .cls-1 {
        fill: #fc911d;
      }
    </style>
  </defs>
  <polygon class="cls-1" points="89.29 23.03 95.23 1.25 23.48 1.25 18.2 23.03 42.24 23.03 0 178.13 23.86 178.13 65.43 23.03 89.29 23.03"/>
  <path class="cls-1" d="M154.27.07c-2.87-.21-22.12.14-22.12.14-11.51.54-19.22,7.15-24.17,18.18l-23.21,87.76h-16.45l-4.34,22h13.39l-13.78,49.95h24.49l13.33-49.18h24.87l-14.13,49.18h23.67L176.54,24.77C176.79,6.72,159.96.48,154.27.07ZM152.56,34.43c-1.81,6.46-20.29,72.31-20.29,72.31h-25.49l18.35-69.09c2.61-10.04,6.85-15,10.61-15.09,7.34-.18,5.33-.22,11.45-.17,4.74.03,7.22,5.43,5.37,12.04Z"/>
  <polygon class="cls-1" points="206.53 1.04 158.81 178.09 181.54 178.09 229.38 1.04 206.53 1.04"/>
  <path class="cls-1" d="M294.16.17c-11.71-.13-10.73.04-20.27-.05s-20.35,8.82-23.81,17.79-45.13,160.23-45.13,160.23l23.99-.04,39.1-143.08c2.36-8.06,6.3-12,10.26-12.5,0,0,8.42.02,9.73.02s6.28,2.29,5.08,11.5l-38.16,144.11h22.07s38.1-128.65,40.78-148.21S305.88.3,294.16.17Z"/>
  <path class="cls-1" d="M390.89,1.07h-20.3c-9.48-.03-22.74,2.69-26.29,14.25l-36.87,135.55c-3.09,21.15,11.33,27.26,22.94,27.28l19.28-.02c13.31.21,22.74-6.62,27.12-19.45l33.65-124.35,2.35-11.81c1.03-16.62-12.05-21.27-21.88-21.45ZM387.72,33.66l-31.59,117.17c-1.97,5.2-3.83,6.43-6.87,6.43h-14.14c-3.83,0-5.81-3.83-4.4-8.43l32.25-119.24c1.49-4.97,4.92-7.08,9-7.07l10.14-.06c5.56,0,6.68,6.53,5.61,11.2Z"/>
  <path d="M406.72,143.87l26.07-106.22h91.11c3.98,0,7.41.94,10.31,2.8,2.89,1.88,4.95,4.36,6.18,7.47s1.38,6.53.46,10.27l-7.04,28.66c-.92,3.74-2.75,7.19-5.52,10.34s-6.05,5.64-9.85,7.47c-3.79,1.82-7.69,2.73-11.66,2.73l-70.41.14-8.92,36.34h-20.73ZM443.13,87.74h67.53c.52,0,1.04-.16,1.53-.44.5-.3.8-.7.92-1.19l6.67-27.18c.12-.48.02-.9-.32-1.25s-.77-.52-1.29-.52h-67.53c-.52,0-1.01.17-1.47.52s-.74.77-.86,1.25l-6.67,27.18c-.12.49-.04.89.26,1.19.3.29.71.44,1.23.44Z"/>
  <path d="M544.68,58.04c.92-3.75,2.74-7.17,5.5-10.27s6.01-5.59,9.77-7.47c3.76-1.86,7.62-2.8,11.6-2.8h69.27c3.98,0,7.41.94,10.31,2.8,2.89,1.88,4.95,4.36,6.18,7.47,1.22,3.1,1.38,6.52.46,10.27l-21.07,85.83h-20.89l8.78-35.75h-71.47l-8.78,35.75h-20.73l21.07-85.83ZM629.38,88.62l7.29-29.7c.12-.48,0-.9-.32-1.25-.34-.35-.77-.52-1.29-.52h-67.55c-.52,0-1.01.17-1.46.52-.46.35-.74.77-.86,1.25l-7.29,29.7h71.47Z"/>
  <path d="M641.03,143.87l26.07-106.22h91.11c3.98,0,7.41.94,10.31,2.8,2.89,1.88,4.95,4.36,6.18,7.47,1.23,3.1,1.38,6.53.46,10.27l-7.04,28.66c-.92,3.74-2.75,7.19-5.52,10.34-2.77,3.15-6.05,5.64-9.85,7.47-3.79,1.82-7.69,2.73-11.66,2.73l-70.41.14-8.92,36.34h-20.73ZM677.44,87.74h67.53c.52,0,1.04-.16,1.53-.44.5-.3.8-.7.92-1.19l6.67-27.18c.12-.48.02-.9-.32-1.25s-.77-.52-1.29-.52h-67.53c-.52,0-1.01.17-1.47.52s-.74.77-.86,1.25l-6.67,27.18c-.12.49-.04.89.26,1.19.3.29.71.44,1.23.44ZM731.19,143.87l-24.69-38.27h27.18l21.48,32.8-1.34,5.47h-22.63Z"/>
  <path d="M803.01,143.87l21.29-86.72h-46.17l4.82-19.64h113.09l-4.82,19.64h-46.02l-21.29,86.72h-20.9Z"/>
  <path d="M873.55,143.87l26.11-106.36h22.78l50.35,77.7,19.07-77.7h20.89l-26.11,106.36h-22.77l-50.48-77.86-19.11,77.86h-20.73Z"/>
  <path d="M990.09,143.87l26.11-106.36h104.15l-4.82,19.64h-83.26l-5.8,23.64h66.92l-4.86,19.8h-66.92l-5.8,23.64h83.26l-4.82,19.64h-104.15Z"/>
  <path d="M1098.32,143.87l26.07-106.22h91.11c3.98,0,7.41.94,10.31,2.8,2.89,1.88,4.95,4.36,6.18,7.47,1.23,3.1,1.38,6.53.46,10.27l-7.04,28.66c-.92,3.74-2.75,7.19-5.52,10.34s-6.05,5.64-9.85,7.47c-3.79,1.82-7.69,2.73-11.66,2.73l-70.41.14-8.92,36.34h-20.73ZM1134.72,87.74h67.53c.52,0,1.04-.16,1.53-.44.5-.3.8-.7.92-1.19l6.67-27.18c.12-.48.02-.9-.32-1.25s-.77-.52-1.29-.52h-67.53c-.52,0-1.01.17-1.47.52s-.74.77-.86,1.25l-6.67,27.18c-.12.49-.04.89.26,1.19.3.29.71.44,1.23.44ZM1188.48,143.87l-24.69-38.27h27.18l21.48,32.8-1.34,5.47h-22.63Z"/>
  <path d="M1236.6,143.87c-3.98,0-7.39-.94-10.23-2.8-2.84-1.88-4.87-4.36-6.09-7.47-1.23-3.1-1.39-6.53-.47-10.27l2-8.13h20.73l-1.78,7.24c-.12.49-.05.91.24,1.26.29.34.69.52,1.22.52h67.7c.52,0,1.02-.18,1.46-.52s.74-.77.86-1.26l4.97-20.23c.12-.49.04-.89-.26-1.19-.29-.29-.7-.43-1.22-.43h-68.49c-3.98,0-7.39-.94-10.23-2.81-2.84-1.86-4.88-4.35-6.1-7.45-1.23-3.1-1.38-6.58-.43-10.42l5.37-21.86c.92-3.75,2.76-7.17,5.51-10.27,2.74-3.1,6-5.59,9.76-7.47,3.76-1.86,7.63-2.8,11.6-2.8h69.44c3.98,0,7.39.94,10.23,2.8,2.84,1.88,4.86,4.36,6.09,7.47s1.39,6.52.47,10.27l-2,8.13h-20.9l1.78-7.25c.12-.48.04-.9-.24-1.25-.27-.35-.68-.52-1.2-.52h-67.7c-.52,0-1.01.17-1.47.52s-.74.77-.86,1.25l-4.97,20.25c-.12.49-.04.89.26,1.18.3.3.71.44,1.23.44h68.65c3.98,0,7.39.94,10.23,2.8,2.84,1.88,4.86,4.36,6.09,7.47s1.38,6.58.44,10.41l-5.37,21.87c-.92,3.74-2.76,7.17-5.51,10.27-2.76,3.1-6,5.59-9.76,7.47-3.76,1.86-7.63,2.8-11.6,2.8h-69.44Z"/>
  <polygon class="cls-1" points="1318.85 179.43 398.26 179.5 403.92 157.25 1324.41 157.25 1318.85 179.43"/>
  <polygon class="cls-1" points="1356.85 23.43 436.26 23.5 441.92 1.25 1362.41 1.25 1356.85 23.43"/>
</svg>